PathFileType	4	(X/Y/Z)	SUBJ32_1_walk_RCNL2025.trc
DataRate	CameraRate	NumFrames	NumMarkers	Units	OrigDataRate	OrigDataStartFrame	OrigNumFrames
100	100	8	25	mm	100	125	331
Frame#	Time	R_Shoulder			L_Shoulder			C7			J_Notch			R_Elbow			L_Elbow			R_Wrist			L_Wrist			R_Asis			L_Asis			Sacral			Thoracic			Sternum			R_Thigh_Lateral			R_Knee_Lateral			R_Shank_Lateral			R_Ankle_Lateral			R_Heel			R_Toe			L_Thigh_Lateral			L_Knee_Lateral			L_Shank_Lateral			L_Ankle_Lateral			L_Heel			L_Toe		
		X1	Y1	Z1	X2	Y2	Z2	X3	Y3	Z3	X4	Y4	Z4	X5	Y5	Z5	X6	Y6	Z6	X7	Y7	Z7	X8	Y8	Z8	X9	Y9	Z9	X10	Y10	Z10	X11	Y11	Z11	X12	Y12	Z12	X13	Y13	Z13	X14	Y14	Z14	X15	Y15	Z15	X16	Y16	Z16	X17	Y17	Z17	X18	Y18	Z18	X19	Y19	Z19	X20	Y20	Z20	X21	Y21	Z21	X22	Y22	Z22	X23	Y23	Z23	X24	Y24	Z24	X25	Y25	Z25
125	1.24000000	157.415543	1355.236572	-33.597523	129.444458	1367.426025	-404.930786	129.177277	1442.888672	-205.000916	238.222260	1328.765381	-222.483521	113.913231	1023.830017	72.907814	4.347558	1064.171143	-487.738251	231.079254	803.231720	80.494324	23.939306	805.266388	-509.285065	199.623962	902.570923	-108.238754	203.060776	895.242798	-359.401276	2.005261	948.730225	-235.506668	7.288663	1210.066040	-217.700867	300.888794	1108.467407	-226.964767	70.462242	540.985229	-56.014389	62.909157	445.946991	-108.043106	35.815659	284.092804	-47.957645	4.982911	66.606537	-177.028870	-47.625126	62.468445	-229.313919	134.102676	47.333305	-211.622696	231.985062	574.132629	-472.440674	262.074646	487.739960	-430.102539	204.878448	276.206543	-453.350952	138.153076	97.911888	-363.900421	89.388588	97.568115	-312.662994	264.985840	57.947544	-348.615387
126	1.25000000	167.118942	1354.353271	-34.048943	139.636368	1366.041504	-405.384674	139.329422	1441.746460	-205.507248	248.316315	1327.557007	-222.710999	125.858315	1022.989929	73.222939	13.268142	1062.908813	-486.853760	245.637344	803.842133	80.685997	31.154613	803.765625	-507.593536	208.593018	901.363647	-107.992226	213.914017	893.953308	-359.066010	12.014534	947.684937	-236.653198	17.274139	1209.100342	-218.449402	310.843475	1107.181030	-226.355133	75.910057	540.700012	-56.212635	67.143028	445.755157	-108.391060	38.230701	284.227234	-48.260944	5.226612	66.889847	-177.560165	-47.276237	63.064960	-230.089584	134.413834	47.344025	-211.584854	244.765533	572.842712	-471.245911	274.831757	486.639374	-427.913208	226.911285	272.491547	-451.870331	171.682587	90.047630	-363.086456	122.955086	87.595345	-311.714111	300.341339	55.449348	-347.857361
127	1.26000000	176.940277	1353.326782	-34.547764	149.885574	1364.545410	-405.865417	149.572571	1440.477051	-206.048950	258.495514	1326.198975	-222.995407	137.707504	1022.075256	73.508461	22.341652	1061.529663	-486.119171	259.939850	804.325439	80.921547	38.700311	802.167145	-506.018967	217.580338	900.052063	-107.792999	224.792557	892.479492	-358.778381	22.059435	946.542969	-237.867203	27.313412	1208.032349	-219.223709	320.815826	1105.719727	-225.803162	81.522812	540.339111	-56.422577	71.656685	445.484711	-108.742424	40.856930	284.330963	-48.596184	5.509873	67.214706	-178.177048	-46.844929	63.722874	-230.957962	134.750031	47.374458	-211.546997	257.002380	571.204712	-470.037933	286.961548	485.160431	-425.709656	248.517822	268.898682	-450.367798	205.439651	82.972198	-362.247253	156.824600	78.642242	-310.727112	335.609589	53.242088	-346.903107
128	1.27000000	186.891632	1352.179565	-35.099998	160.203094	1362.952271	-406.378204	159.913330	1439.098022	-206.632309	268.765381	1324.712402	-223.339554	149.442978	1021.102295	73.759186	31.570993	1060.050293	-485.536743	273.964104	804.687073	81.205490	46.572644	800.486877	-504.569977	226.597427	898.652710	-107.630219	235.715302	890.834778	-358.532166	32.159679	945.317078	-239.140610	37.420788	1206.874634	-220.029999	330.824860	1104.102661	-225.306824	87.260735	539.920410	-56.650375	76.408859	445.152161	-109.098198	43.635033	284.405914	-48.971428	5.835088	67.594246	-178.872818	-46.334770	64.458153	-231.908905	135.097382	47.427341	-211.503036	268.625092	569.216248	-468.807953	298.445160	483.326202	-423.494232	269.612122	265.488312	-448.850067	239.247757	76.801903	-361.392059	190.822388	70.817635	-309.703705	370.659698	51.416012	-345.803650
129	1.28000000	196.979553	1350.936157	-35.713024	170.601944	1361.277222	-406.931030	170.358490	1437.627441	-207.267059	279.130219	1323.118896	-223.744766	161.050461	1020.087097	73.970467	40.960705	1058.488281	-485.104950	287.687729	804.933105	81.542072	54.767796	798.741913	-503.259872	235.657394	897.182434	-107.492195	246.704147	889.039062	-358.319366	42.338268	944.014526	-240.460922	47.610313	1205.638794	-220.877060	340.892456	1102.353882	-224.867767	93.086212	539.465454	-56.901936	81.356316	444.777344	-109.456192	46.506493	284.454987	-49.394169	6.202044	68.038765	-179.628494	-45.755890	65.284027	-232.920639	135.450836	47.499554	-211.455414	279.569916	566.874451	-467.549225	309.272797	481.159882	-421.268646	290.134949	262.300140	-447.322083	272.887360	71.623009	-360.533600	224.743561	64.176979	-308.660492	405.332428	50.127296	-344.625488
130	1.29000000	207.204971	1349.622314	-36.394550	181.097046	1359.535645	-407.533478	180.914795	1436.084229	-207.965103	289.594849	1321.440674	-224.213028	172.520584	1019.044861	74.137848	50.518757	1056.860474	-484.820892	301.088593	805.069672	81.935036	63.283295	796.947815	-502.104416	244.774261	895.657776	-107.367935	257.783203	887.116760	-358.128723	52.618408	942.640137	-241.813248	57.896816	1204.334473	-221.775497	351.039856	1100.500488	-224.490158	98.972130	538.997375	-57.179127	86.461517	444.380127	-109.809914	49.415791	284.492218	-49.865601	6.608115	68.556023	-180.411713	-45.123493	66.212486	-233.955109	135.807281	47.581539	-211.412186	289.793365	564.178955	-466.260315	319.457367	478.688141	-419.038025	310.060089	259.357269	-445.789246	306.107025	67.489738	-359.684814	258.362244	58.711105	-307.625183	439.434174	49.590130	-343.448883
131	1.30000000	217.562195	1348.264771	-37.150383	191.705002	1357.741943	-408.195312	191.587921	1434.486694	-208.738968	300.166290	1319.700562	-224.747192	183.848099	1017.990112	74.256981	60.257507	1055.180908	-484.682678	314.145111	805.101624	82.386887	72.117231	795.117798	-501.118118	253.964737	894.094421	-107.247681	268.975159	885.094788	-357.947479	63.018650	941.201233	-243.182007	68.296577	1202.967896	-222.736618	361.286285	1098.572144	-224.177673	104.908669	538.540161	-57.475021	91.698997	443.977997	-110.147514	52.326447	284.548523	-50.368996	7.048873	69.153839	-181.178848	-44.455414	67.257988	-234.959274	136.160522	47.660156	-211.381927	299.282867	561.136414	-464.946320	329.050385	475.947662	-416.814423	329.393738	256.673920	-444.259094	338.634521	64.416107	-358.852539	291.438232	54.342831	-306.628510	472.734131	50.042149	-342.358093
132	1.31000000	228.041245	1346.888306	-37.983562	202.443359	1355.909058	-408.926086	202.381973	1432.852295	-209.600449	310.853333	1317.920532	-225.349899	195.027954	1016.938843	74.324402	70.192284	1053.460205	-484.689636	326.837173	805.032410	82.897327	81.267546	793.261627	-500.311874	263.249451	892.507568	-107.124611	280.297333	883.000061	-357.763275	73.551804	939.709961	-244.553070	78.826279	1201.544800	-223.770096	371.650421	1096.598755	-223.931686	110.906746	538.116150	-57.771420	97.057701	443.586029	-110.450272	55.246906	284.659271	-50.865627	7.519515	69.843399	-181.880341	-43.768093	68.439957	-235.871994	136.501007	47.722095	-211.367447	308.067566	557.765747	-463.617828	338.153351	472.991547	-414.619110	348.171234	254.262589	-442.743103	370.185638	62.366989	-358.033691	323.723053	50.930019	-305.689209	504.969574	51.693798	-341.429291
